<svg xmlns="http://www.w3.org/2000/svg" width="880" height="460" viewBox="0 0 880 460">
<style>text{font-family:Helvetica,Arial,sans-serif;font-size:12px;fill:#333;} .title{font-size:18px;font-weight:bold;}</style>
<text class="title" x="440.0" y="30.0" text-anchor="middle">Stephen Curry vs. League Three-Point Volume</text>
<rect x="70" y="40" width="740" height="360" fill="none" stroke="#ccc"/>
<line x1="65" y1="400.00" x2="70" y2="400.00" stroke="#666"/>
<text x="60" y="404.00" text-anchor="end">0.0</text>
<line x1="65" y1="328.00" x2="70" y2="328.00" stroke="#666"/>
<text x="60" y="332.00" text-anchor="end">2.7</text>
<line x1="65" y1="256.00" x2="70" y2="256.00" stroke="#666"/>
<text x="60" y="260.00" text-anchor="end">5.3</text>
<line x1="65" y1="184.00" x2="70" y2="184.00" stroke="#666"/>
<text x="60" y="188.00" text-anchor="end">8.0</text>
<line x1="65" y1="112.00" x2="70" y2="112.00" stroke="#666"/>
<text x="60" y="116.00" text-anchor="end">10.7</text>
<line x1="65" y1="40.00" x2="70" y2="40.00" stroke="#666"/>
<text x="60" y="44.00" text-anchor="end">13.3</text>
<text x="25" y="220.0" transform="rotate(-90 25 220.0)" text-anchor="middle">Curry 3PA per game</text>
<line x1="810" y1="400.00" x2="815" y2="400.00" stroke="#666"/>
<text x="820" y="404.00">0.0</text>
<line x1="810" y1="328.00" x2="815" y2="328.00" stroke="#666"/>
<text x="820" y="332.00">0.6</text>
<line x1="810" y1="256.00" x2="815" y2="256.00" stroke="#666"/>
<text x="820" y="260.00">1.2</text>
<line x1="810" y1="184.00" x2="815" y2="184.00" stroke="#666"/>
<text x="820" y="188.00">1.8</text>
<line x1="810" y1="112.00" x2="815" y2="112.00" stroke="#666"/>
<text x="820" y="116.00">2.4</text>
<line x1="810" y1="40.00" x2="815" y2="40.00" stroke="#666"/>
<text x="820" y="44.00">3.0</text>
<text x="860" y="220.0" transform="rotate(90 860 220.0)" text-anchor="middle">League average 3PA per player</text>
<line x1="70.00" y1="400" x2="70.00" y2="405" stroke="#666"/>
<text x="70.00" y="420" text-anchor="middle">2010</text>
<line x1="119.33" y1="400" x2="119.33" y2="405" stroke="#666"/>
<text x="119.33" y="420" text-anchor="middle">2011</text>
<line x1="168.67" y1="400" x2="168.67" y2="405" stroke="#666"/>
<text x="168.67" y="420" text-anchor="middle">2012</text>
<line x1="218.00" y1="400" x2="218.00" y2="405" stroke="#666"/>
<text x="218.00" y="420" text-anchor="middle">2013</text>
<line x1="267.33" y1="400" x2="267.33" y2="405" stroke="#666"/>
<text x="267.33" y="420" text-anchor="middle">2014</text>
<line x1="316.67" y1="400" x2="316.67" y2="405" stroke="#666"/>
<text x="316.67" y="420" text-anchor="middle">2015</text>
<line x1="366.00" y1="400" x2="366.00" y2="405" stroke="#666"/>
<text x="366.00" y="420" text-anchor="middle">2016</text>
<line x1="415.33" y1="400" x2="415.33" y2="405" stroke="#666"/>
<text x="415.33" y="420" text-anchor="middle">2017</text>
<line x1="464.67" y1="400" x2="464.67" y2="405" stroke="#666"/>
<text x="464.67" y="420" text-anchor="middle">2018</text>
<line x1="514.00" y1="400" x2="514.00" y2="405" stroke="#666"/>
<text x="514.00" y="420" text-anchor="middle">2019</text>
<line x1="563.33" y1="400" x2="563.33" y2="405" stroke="#666"/>
<text x="563.33" y="420" text-anchor="middle">2020</text>
<line x1="612.67" y1="400" x2="612.67" y2="405" stroke="#666"/>
<text x="612.67" y="420" text-anchor="middle">2021</text>
<line x1="662.00" y1="400" x2="662.00" y2="405" stroke="#666"/>
<text x="662.00" y="420" text-anchor="middle">2022</text>
<line x1="711.33" y1="400" x2="711.33" y2="405" stroke="#666"/>
<text x="711.33" y="420" text-anchor="middle">2023</text>
<line x1="760.67" y1="400" x2="760.67" y2="405" stroke="#666"/>
<text x="760.67" y="420" text-anchor="middle">2024</text>
<line x1="810.00" y1="400" x2="810.00" y2="405" stroke="#666"/>
<text x="810.00" y="420" text-anchor="middle">2025</text>
<line x1="70" y1="328.00" x2="810" y2="328.00" stroke="#eee"/>
<line x1="70" y1="256.00" x2="810" y2="256.00" stroke="#eee"/>
<line x1="70" y1="184.00" x2="810" y2="184.00" stroke="#eee"/>
<line x1="70" y1="112.00" x2="810" y2="112.00" stroke="#eee"/>
<path d="M 70.00 270.42 L 119.33 275.82 L 168.67 273.12 L 218.00 192.13 L 267.33 186.73 L 316.67 181.33 L 366.00 97.64 L 415.33 130.03 L 464.67 135.43 L 514.00 84.14 L 563.33 135.43 L 612.67 57.14 L 662.00 84.14 L 711.33 92.24 L 760.67 81.44 L 810.00 97.64" fill="none" stroke="#ff7f0e" stroke-width="2.5"/>
<path d="M 70.00 218.87 L 119.33 215.11 L 168.67 218.47 L 218.00 208.94 L 267.33 196.80 L 316.67 175.09 L 366.00 170.49 L 415.33 139.08 L 464.67 133.25 L 514.00 92.21 L 563.33 75.80 L 612.67 73.55 L 662.00 92.01 L 711.33 65.25 L 760.67 89.38 L 810.00 57.14" fill="none" stroke="#1f77b4" stroke-width="2.5" stroke-dasharray="6 4"/>
<rect x="80" y="50" width="12" height="3" fill="#ff7f0e"/>
<text x="98" y="58" text-anchor="start">Curry 3PA per game</text>
<line x1="80" y1="70" x2="92" y2="70" stroke="#1f77b4" stroke-width="2" stroke-dasharray="6 4"/>
<text x="98" y="74" text-anchor="start">League average 3PA per player</text>
</svg>