<svg xmlns="http://www.w3.org/2000/svg" width="880" height="460" viewBox="0 0 880 460">
<style>text{font-family:Helvetica,Arial,sans-serif;font-size:12px;fill:#333;} .title{font-size:18px;font-weight:bold;}</style>
<text class="title" x="440.0" y="30.0" text-anchor="middle">Rise of Stretch Positions</text>
<rect x="75" y="40" width="765" height="360" fill="none" stroke="#ccc"/>
<line x1="70" y1="400.00" x2="75" y2="400.00" stroke="#666"/>
<text x="65" y="404.00" text-anchor="end">0%</text>
<line x1="70" y1="328.00" x2="75" y2="328.00" stroke="#666"/>
<text x="65" y="332.00" text-anchor="end">20%</text>
<line x1="75" y1="328.00" x2="840" y2="328.00" stroke="#eee"/>
<line x1="70" y1="256.00" x2="75" y2="256.00" stroke="#666"/>
<text x="65" y="260.00" text-anchor="end">40%</text>
<line x1="75" y1="256.00" x2="840" y2="256.00" stroke="#eee"/>
<line x1="70" y1="184.00" x2="75" y2="184.00" stroke="#666"/>
<text x="65" y="188.00" text-anchor="end">60%</text>
<line x1="75" y1="184.00" x2="840" y2="184.00" stroke="#eee"/>
<line x1="70" y1="112.00" x2="75" y2="112.00" stroke="#666"/>
<text x="65" y="116.00" text-anchor="end">80%</text>
<line x1="75" y1="112.00" x2="840" y2="112.00" stroke="#eee"/>
<line x1="70" y1="40.00" x2="75" y2="40.00" stroke="#666"/>
<text x="65" y="44.00" text-anchor="end">100%</text>
<text x="25" y="220.0" transform="rotate(-90 25 220.0)" text-anchor="middle">Share of league 3PA</text>
<line x1="75.00" y1="400" x2="75.00" y2="405" stroke="#666"/>
<text x="75.00" y="420" text-anchor="middle">1968</text>
<line x1="128.68" y1="400" x2="128.68" y2="405" stroke="#666"/>
<text x="128.68" y="420" text-anchor="middle">1972</text>
<line x1="182.37" y1="400" x2="182.37" y2="405" stroke="#666"/>
<text x="182.37" y="420" text-anchor="middle">1976</text>
<line x1="276.32" y1="400" x2="276.32" y2="405" stroke="#666"/>
<text x="276.32" y="420" text-anchor="middle">1983</text>
<line x1="330.00" y1="400" x2="330.00" y2="405" stroke="#666"/>
<text x="330.00" y="420" text-anchor="middle">1987</text>
<line x1="383.68" y1="400" x2="383.68" y2="405" stroke="#666"/>
<text x="383.68" y="420" text-anchor="middle">1991</text>
<line x1="437.37" y1="400" x2="437.37" y2="405" stroke="#666"/>
<text x="437.37" y="420" text-anchor="middle">1995</text>
<line x1="491.05" y1="400" x2="491.05" y2="405" stroke="#666"/>
<text x="491.05" y="420" text-anchor="middle">1999</text>
<line x1="544.74" y1="400" x2="544.74" y2="405" stroke="#666"/>
<text x="544.74" y="420" text-anchor="middle">2003</text>
<line x1="598.42" y1="400" x2="598.42" y2="405" stroke="#666"/>
<text x="598.42" y="420" text-anchor="middle">2007</text>
<line x1="652.11" y1="400" x2="652.11" y2="405" stroke="#666"/>
<text x="652.11" y="420" text-anchor="middle">2011</text>
<line x1="705.79" y1="400" x2="705.79" y2="405" stroke="#666"/>
<text x="705.79" y="420" text-anchor="middle">2015</text>
<line x1="759.47" y1="400" x2="759.47" y2="405" stroke="#666"/>
<text x="759.47" y="420" text-anchor="middle">2019</text>
<line x1="813.16" y1="400" x2="813.16" y2="405" stroke="#666"/>
<text x="813.16" y="420" text-anchor="middle">2023</text>
<line x1="840.00" y1="400" x2="840.00" y2="405" stroke="#666"/>
<text x="840.00" y="420" text-anchor="middle">2025</text>
<path d="M 75.00 394.75 L 88.42 393.61 L 101.84 395.73 L 115.26 394.96 L 128.68 395.42 L 142.11 391.73 L 155.53 393.33 L 168.95 392.78 L 182.37 392.37 L 236.05 392.83 L 249.47 392.30 L 262.89 390.02 L 276.32 388.79 L 289.74 388.49 L 303.16 392.21 L 316.58 393.04 L 330.00 395.76 L 343.42 393.56 L 356.84 384.73 L 370.26 383.95 L 383.68 388.69 L 397.11 391.82 L 410.53 393.71 L 423.95 394.23 L 437.37 391.98 L 450.79 394.88 L 464.21 394.08 L 477.63 394.20 L 491.05 396.29 L 504.47 395.93 L 517.89 395.98 L 531.32 388.77 L 544.74 395.17 L 558.16 394.71 L 571.58 392.42 L 585.00 397.42 L 598.42 392.32 L 611.84 388.54 L 625.26 391.60 L 638.68 389.17 L 652.11 395.67 L 665.53 395.69 L 678.95 396.59 L 692.37 389.41 L 705.79 393.73 L 719.21 388.49 L 732.63 376.97 L 746.05 375.97 L 759.47 377.63 L 772.89 365.32 L 786.32 371.12 L 799.74 371.52 L 813.16 373.19 L 826.58 375.50 L 840.00 370.94" fill="none" stroke="#8c564b" stroke-width="2"/>
<path d="M 75.00 396.61 L 88.42 399.10 L 101.84 398.77 L 115.26 395.06 L 128.68 397.93" fill="none" stroke="#000000" stroke-width="2"/>
<path d="M 75.00 381.10 L 88.42 368.11 L 101.84 382.04 L 115.26 377.60 L 128.68 374.11 L 142.11 357.05 L 155.53 361.46 L 168.95 344.29 L 182.37 377.63 L 236.05 365.45 L 249.47 374.30 L 262.89 379.82 L 276.32 364.33 L 289.74 374.95 L 303.16 384.48 L 316.58 379.46 L 330.00 373.21 L 343.42 370.46 L 356.84 363.34 L 370.26 368.24 L 383.68 376.69 L 397.11 374.10 L 410.53 362.06 L 423.95 369.10 L 437.37 371.35 L 450.79 375.18 L 464.21 374.47 L 477.63 377.60 L 491.05 377.10 L 504.47 361.50 L 517.89 359.10 L 531.32 365.80 L 544.74 358.94 L 558.16 359.17 L 571.58 355.49 L 585.00 346.13 L 598.42 350.25 L 611.84 353.67 L 625.26 349.67 L 638.68 358.76 L 652.11 364.93 L 665.53 362.83 L 678.95 358.89 L 692.37 356.48 L 705.79 351.17 L 719.21 343.87 L 732.63 338.48 L 746.05 329.07 L 759.47 327.74 L 772.89 324.60 L 786.32 334.35 L 799.74 338.55 L 813.16 337.90 L 826.58 332.10 L 840.00 337.44" fill="none" stroke="#9467bd" stroke-width="2"/>
<path d="M 75.00 251.40 L 88.42 262.35 L 101.84 273.73 L 115.26 290.36 L 128.68 304.69 L 142.11 261.28 L 155.53 281.11 L 168.95 281.46 L 182.37 306.44 L 236.05 298.95 L 249.47 288.13 L 262.89 287.94 L 276.32 264.45 L 289.74 265.21 L 303.16 276.74 L 316.58 257.71 L 330.00 274.04 L 343.42 279.07 L 356.84 280.02 L 370.26 278.86 L 383.68 279.24 L 397.11 286.11 L 410.53 291.95 L 423.95 296.41 L 437.37 292.57 L 450.79 276.04 L 464.21 279.63 L 477.63 289.45 L 491.05 284.24 L 504.47 288.83 L 517.89 283.49 L 531.32 294.43 L 544.74 293.27 L 558.16 290.13 L 571.58 291.87 L 585.00 291.39 L 598.42 301.42 L 611.84 303.92 L 625.26 306.70 L 638.68 300.16 L 652.11 303.46 L 665.53 303.54 L 678.95 303.14 L 692.37 295.69 L 705.79 297.10 L 719.21 310.33 L 732.63 315.53 L 746.05 320.82 L 759.47 319.68 L 772.89 324.51 L 786.32 317.43 L 799.74 320.14 L 813.16 322.55 L 826.58 316.21 L 840.00 318.13" fill="none" stroke="#1f77b4" stroke-width="2"/>
<path d="M 75.00 352.32 L 88.42 348.75 L 101.84 351.85 L 115.26 341.13 L 128.68 313.28 L 142.11 331.71 L 155.53 324.16 L 168.95 334.43 L 182.37 359.07 L 236.05 337.74 L 249.47 354.32 L 262.89 349.81 L 276.32 328.34 L 289.74 339.49 L 303.16 321.50 L 316.58 322.47 L 330.00 330.13 L 343.42 330.28 L 356.84 338.01 L 370.26 329.22 L 383.68 325.82 L 397.11 310.77 L 410.53 322.36 L 423.95 310.62 L 437.37 305.21 L 450.79 305.90 L 464.21 310.62 L 477.63 305.35 L 491.05 300.61 L 504.47 305.91 L 517.89 307.65 L 531.32 312.14 L 544.74 305.76 L 558.16 308.88 L 571.58 308.31 L 585.00 315.28 L 598.42 316.64 L 611.84 317.26 L 625.26 306.14 L 638.68 308.68 L 652.11 298.96 L 665.53 301.95 L 678.95 298.44 L 692.37 302.40 L 705.79 316.00 L 719.21 306.48 L 732.63 317.10 L 746.05 333.21 L 759.47 334.10 L 772.89 327.05 L 786.32 328.09 L 799.74 330.54 L 813.16 315.33 L 826.58 313.20 L 840.00 330.97" fill="none" stroke="#2ca02c" stroke-width="2"/>
<path d="M 75.00 263.82 L 88.42 268.08 L 101.84 237.87 L 115.26 240.89 L 128.68 254.58 L 142.11 298.22 L 155.53 279.94 L 168.95 287.05 L 182.37 204.49 L 236.05 245.03 L 249.47 230.94 L 262.89 232.41 L 276.32 294.09 L 289.74 271.86 L 303.16 265.06 L 316.58 287.31 L 330.00 266.86 L 343.42 266.63 L 356.84 273.89 L 370.26 279.73 L 383.68 269.56 L 397.11 277.19 L 410.53 269.91 L 423.95 269.64 L 437.37 278.89 L 450.79 288.01 L 464.21 281.20 L 477.63 273.40 L 491.05 281.77 L 504.47 287.83 L 517.89 293.78 L 531.32 278.85 L 544.74 286.86 L 558.16 287.11 L 571.58 291.92 L 585.00 289.77 L 598.42 279.38 L 611.84 276.60 L 625.26 285.89 L 638.68 283.23 L 652.11 276.98 L 665.53 275.98 L 678.95 282.93 L 692.37 296.01 L 705.79 282.00 L 719.21 290.83 L 732.63 291.92 L 746.05 280.93 L 759.47 280.86 L 772.89 298.52 L 786.32 289.00 L 799.74 279.25 L 813.16 291.03 L 826.58 302.99 L 840.00 282.52" fill="none" stroke="#d62728" stroke-width="2"/>
<rect x="85" y="50" width="12" height="12" fill="#8c564b"/>
<text x="105" y="60" text-anchor="start">C</text>
<rect x="85" y="68" width="12" height="12" fill="#000000"/>
<text x="105" y="78" text-anchor="start">NA</text>
<rect x="85" y="86" width="12" height="12" fill="#9467bd"/>
<text x="105" y="96" text-anchor="start">PF</text>
<rect x="85" y="104" width="12" height="12" fill="#1f77b4"/>
<text x="105" y="114" text-anchor="start">PG</text>
<rect x="85" y="122" width="12" height="12" fill="#2ca02c"/>
<text x="105" y="132" text-anchor="start">SF</text>
<rect x="85" y="140" width="12" height="12" fill="#d62728"/>
<text x="105" y="150" text-anchor="start">SG</text>
</svg>