<svg xmlns="http://www.w3.org/2000/svg" width="880" height="420" viewBox="0 0 880 420">
<style>text{font-family:Helvetica,Arial,sans-serif;font-size:12px;fill:#333;} .title{font-size:18px;font-weight:bold;}</style>
<text class="title" x="440.0" y="30.0" text-anchor="middle">When Teams Crossed the 40% 3PA Threshold</text>
<rect x="70" y="40" width="770" height="320" fill="none" stroke="#ccc"/>
<line x1="147.00" y1="360" x2="147.00" y2="365" stroke="#666"/>
<text x="147.00" y="380" text-anchor="middle">2017</text>
<line x1="224.00" y1="360" x2="224.00" y2="365" stroke="#666"/>
<text x="224.00" y="380" text-anchor="middle">2018</text>
<line x1="301.00" y1="360" x2="301.00" y2="365" stroke="#666"/>
<text x="301.00" y="380" text-anchor="middle">2019</text>
<line x1="378.00" y1="360" x2="378.00" y2="365" stroke="#666"/>
<text x="378.00" y="380" text-anchor="middle">2020</text>
<line x1="455.00" y1="360" x2="455.00" y2="365" stroke="#666"/>
<text x="455.00" y="380" text-anchor="middle">2021</text>
<line x1="532.00" y1="360" x2="532.00" y2="365" stroke="#666"/>
<text x="532.00" y="380" text-anchor="middle">2022</text>
<line x1="609.00" y1="360" x2="609.00" y2="365" stroke="#666"/>
<text x="609.00" y="380" text-anchor="middle">2023</text>
<line x1="686.00" y1="360" x2="686.00" y2="365" stroke="#666"/>
<text x="686.00" y="380" text-anchor="middle">2024</text>
<line x1="763.00" y1="360" x2="763.00" y2="365" stroke="#666"/>
<text x="763.00" y="380" text-anchor="middle">2025</text>
<line x1="65" y1="360.00" x2="70" y2="360.00" stroke="#666"/>
<text x="60" y="364.00" text-anchor="end">-13.3</text>
<line x1="65" y1="320.00" x2="70" y2="320.00" stroke="#666"/>
<text x="60" y="324.00" text-anchor="end">-10.4</text>
<line x1="70" y1="320.00" x2="840" y2="320.00" stroke="#eee"/>
<line x1="65" y1="280.00" x2="70" y2="280.00" stroke="#666"/>
<text x="60" y="284.00" text-anchor="end">-7.6</text>
<line x1="70" y1="280.00" x2="840" y2="280.00" stroke="#eee"/>
<line x1="65" y1="240.00" x2="70" y2="240.00" stroke="#666"/>
<text x="60" y="244.00" text-anchor="end">-4.7</text>
<line x1="70" y1="240.00" x2="840" y2="240.00" stroke="#eee"/>
<line x1="65" y1="200.00" x2="70" y2="200.00" stroke="#666"/>
<text x="60" y="204.00" text-anchor="end">-1.9</text>
<line x1="70" y1="200.00" x2="840" y2="200.00" stroke="#eee"/>
<line x1="65" y1="160.00" x2="70" y2="160.00" stroke="#666"/>
<text x="60" y="164.00" text-anchor="end">1.0</text>
<line x1="70" y1="160.00" x2="840" y2="160.00" stroke="#eee"/>
<line x1="65" y1="120.00" x2="70" y2="120.00" stroke="#666"/>
<text x="60" y="124.00" text-anchor="end">3.9</text>
<line x1="70" y1="120.00" x2="840" y2="120.00" stroke="#eee"/>
<line x1="65" y1="80.00" x2="70" y2="80.00" stroke="#666"/>
<text x="60" y="84.00" text-anchor="end">6.7</text>
<line x1="70" y1="80.00" x2="840" y2="80.00" stroke="#eee"/>
<line x1="65" y1="40.00" x2="70" y2="40.00" stroke="#666"/>
<text x="60" y="44.00" text-anchor="end">9.6</text>
<circle cx="147.00" cy="94.50" r="4" fill="#2ca02c" opacity="0.8"><title>Houston Rockets\nSeason: 2017\nNet Rating: 5.7</title></circle>
<circle cx="224.00" cy="225.85" r="4" fill="#2ca02c" opacity="0.8"><title>Brooklyn Nets\nSeason: 2018\nNet Rating: -3.7</title></circle>
<circle cx="301.00" cy="255.20" r="4" fill="#2ca02c" opacity="0.8"><title>Atlanta Hawks\nSeason: 2019\nNet Rating: -5.8</title></circle>
<circle cx="301.00" cy="192.31" r="4" fill="#2ca02c" opacity="0.8"><title>Dallas Mavericks\nSeason: 2019\nNet Rating: -1.3</title></circle>
<circle cx="301.00" cy="53.97" r="4" fill="#2ca02c" opacity="0.8"><title>Milwaukee Bucks\nSeason: 2019\nNet Rating: 8.6</title></circle>
<circle cx="378.00" cy="132.23" r="4" fill="#2ca02c" opacity="0.8"><title>Miami Heat\nSeason: 2020\nNet Rating: 3.0</title></circle>
<circle cx="378.00" cy="231.44" r="4" fill="#2ca02c" opacity="0.8"><title>Minnesota Timberwolves\nSeason: 2020\nNet Rating: -4.1</title></circle>
<circle cx="378.00" cy="190.92" r="4" fill="#2ca02c" opacity="0.8"><title>New Orleans Pelicans\nSeason: 2020\nNet Rating: -1.2</title></circle>
<circle cx="378.00" cy="88.91" r="4" fill="#2ca02c" opacity="0.8"><title>Toronto Raptors\nSeason: 2020\nNet Rating: 6.1</title></circle>
<circle cx="378.00" cy="140.61" r="4" fill="#2ca02c" opacity="0.8"><title>Utah Jazz\nSeason: 2020\nNet Rating: 2.4</title></circle>
<circle cx="455.00" cy="153.19" r="4" fill="#2ca02c" opacity="0.8"><title>Boston Celtics\nSeason: 2021\nNet Rating: 1.5</title></circle>
<circle cx="455.00" cy="200.70" r="4" fill="#2ca02c" opacity="0.8"><title>Charlotte Hornets\nSeason: 2021\nNet Rating: -1.9</title></circle>
<circle cx="455.00" cy="160.17" r="4" fill="#2ca02c" opacity="0.8"><title>Golden State Warriors\nSeason: 2021\nNet Rating: 1.0</title></circle>
<circle cx="455.00" cy="84.72" r="4" fill="#2ca02c" opacity="0.8"><title>Los Angeles Clippers\nSeason: 2021\nNet Rating: 6.4</title></circle>
<circle cx="455.00" cy="149.00" r="4" fill="#2ca02c" opacity="0.8"><title>Portland Trail Blazers\nSeason: 2021\nNet Rating: 1.8</title></circle>
<circle cx="532.00" cy="140.61" r="4" fill="#2ca02c" opacity="0.8"><title>Denver Nuggets\nSeason: 2022\nNet Rating: 2.4</title></circle>
<circle cx="532.00" cy="175.55" r="4" fill="#2ca02c" opacity="0.8"><title>New York Knicks\nSeason: 2022\nNet Rating: -0.1</title></circle>
<circle cx="532.00" cy="288.73" r="4" fill="#2ca02c" opacity="0.8"><title>Oklahoma City Thunder\nSeason: 2022\nNet Rating: -8.2</title></circle>
<circle cx="532.00" cy="285.94" r="4" fill="#2ca02c" opacity="0.8"><title>Orlando Magic\nSeason: 2022\nNet Rating: -8.0</title></circle>
<circle cx="609.00" cy="217.47" r="4" fill="#2ca02c" opacity="0.8"><title>Indiana Pacers\nSeason: 2023\nNet Rating: -3.1</title></circle>
<circle cx="609.00" cy="137.82" r="4" fill="#2ca02c" opacity="0.8"><title>Sacramento Kings\nSeason: 2023\nNet Rating: 2.6</title></circle>
<circle cx="686.00" cy="139.21" r="4" fill="#2ca02c" opacity="0.8"><title>Cleveland Cavaliers\nSeason: 2024\nNet Rating: 2.5</title></circle>
<circle cx="686.00" cy="273.36" r="4" fill="#2ca02c" opacity="0.8"><title>Memphis Grizzlies\nSeason: 2024\nNet Rating: -7.1</title></circle>
<circle cx="686.00" cy="263.58" r="4" fill="#2ca02c" opacity="0.8"><title>San Antonio Spurs\nSeason: 2024\nNet Rating: -6.4</title></circle>
<circle cx="763.00" cy="195.11" r="4" fill="#2ca02c" opacity="0.8"><title>Chicago Bulls\nSeason: 2025\nNet Rating: -1.5</title></circle>
<circle cx="763.00" cy="157.38" r="4" fill="#2ca02c" opacity="0.8"><title>Los Angeles Lakers\nSeason: 2025\nNet Rating: 1.2</title></circle>
<circle cx="763.00" cy="262.18" r="4" fill="#2ca02c" opacity="0.8"><title>Philadelphia 76ers\nSeason: 2025\nNet Rating: -6.3</title></circle>
<circle cx="763.00" cy="217.47" r="4" fill="#2ca02c" opacity="0.8"><title>Phoenix Suns\nSeason: 2025\nNet Rating: -3.1</title></circle>
<circle cx="763.00" cy="346.03" r="4" fill="#2ca02c" opacity="0.8"><title>Washington Wizards\nSeason: 2025\nNet Rating: -12.3</title></circle>
<text x="440.0" y="405.0" text-anchor="middle">Season of adoption (3PA rate ≥ 40%)</text>
<text x="15" y="200.0" transform="rotate(-90 15 200.0)" text-anchor="middle">Net rating that season</text>
</svg>