<svg xmlns="http://www.w3.org/2000/svg" width="900" height="400" viewBox="0 0 900 400">
<style>text{font-family:Helvetica,Arial,sans-serif;font-size:12px;fill:#333;} .title{font-size:18px;font-weight:bold;}</style>
<text class="title" x="450.0" y="40.0" text-anchor="middle">3PA Volume vs Efficiency Snapshots</text>
<rect x="60.0" y="60" width="195.0" height="280" fill="none" stroke="#ccc"/>
<text x="157.5" y="50.0" text-anchor="middle">Season 2000</text>
<line x1="60.00" y1="340" x2="60.00" y2="345" stroke="#666"/>
<text x="60.00" y="360" text-anchor="middle">0.0</text>
<line x1="108.75" y1="340" x2="108.75" y2="345" stroke="#666"/>
<text x="108.75" y="360" text-anchor="middle">13.3</text>
<line x1="157.50" y1="340" x2="157.50" y2="345" stroke="#666"/>
<text x="157.50" y="360" text-anchor="middle">26.5</text>
<line x1="206.25" y1="340" x2="206.25" y2="345" stroke="#666"/>
<text x="206.25" y="360" text-anchor="middle">39.8</text>
<line x1="255.00" y1="340" x2="255.00" y2="345" stroke="#666"/>
<text x="255.00" y="360" text-anchor="middle">53.0</text>
<line x1="55.0" y1="340.00" x2="60.0" y2="340.00" stroke="#666"/>
<text x="50.0" y="344.00" text-anchor="end">0.298</text>
<line x1="55.0" y1="270.00" x2="60.0" y2="270.00" stroke="#666"/>
<text x="50.0" y="274.00" text-anchor="end">0.332</text>
<line x1="60.0" y1="270.00" x2="255.0" y2="270.00" stroke="#eee"/>
<line x1="55.0" y1="200.00" x2="60.0" y2="200.00" stroke="#666"/>
<text x="50.0" y="204.00" text-anchor="end">0.365</text>
<line x1="60.0" y1="200.00" x2="255.0" y2="200.00" stroke="#eee"/>
<line x1="55.0" y1="130.00" x2="60.0" y2="130.00" stroke="#666"/>
<text x="50.0" y="134.00" text-anchor="end">0.399</text>
<line x1="60.0" y1="130.00" x2="255.0" y2="130.00" stroke="#eee"/>
<line x1="55.0" y1="60.00" x2="60.0" y2="60.00" stroke="#666"/>
<text x="50.0" y="64.00" text-anchor="end">0.433</text>
<circle cx="96.41" cy="301.01" r="3.5" fill="#1f77b4" opacity="0.8"><title>Atlanta Hawks\n3PA: 9.9\n3P%: 0.317</title></circle>
<circle cx="116.64" cy="271.82" r="3.5" fill="#1f77b4" opacity="0.8"><title>Boston Celtics\n3PA: 15.4\n3P%: 0.331</title></circle>
<circle cx="104.87" cy="255.15" r="3.5" fill="#1f77b4" opacity="0.8"><title>Charlotte Hornets\n3PA: 12.2\n3P%: 0.339</title></circle>
<circle cx="106.34" cy="275.99" r="3.5" fill="#1f77b4" opacity="0.8"><title>Chicago Bulls\n3PA: 12.6\n3P%: 0.329</title></circle>
<circle cx="101.19" cy="184.26" r="3.5" fill="#1f77b4" opacity="0.8"><title>Cleveland Cavaliers\n3PA: 11.2\n3P%: 0.373</title></circle>
<circle cx="119.58" cy="146.73" r="3.5" fill="#1f77b4" opacity="0.8"><title>Dallas Mavericks\n3PA: 16.2\n3P%: 0.391</title></circle>
<circle cx="122.52" cy="261.40" r="3.5" fill="#1f77b4" opacity="0.8"><title>Denver Nuggets\n3PA: 17.0\n3P%: 0.336</title></circle>
<circle cx="114.80" cy="213.45" r="3.5" fill="#1f77b4" opacity="0.8"><title>Detroit Pistons\n3PA: 14.9\n3P%: 0.359</title></circle>
<circle cx="107.81" cy="288.50" r="3.5" fill="#1f77b4" opacity="0.8"><title>Golden State Warriors\n3PA: 13.0\n3P%: 0.323</title></circle>
<circle cx="132.82" cy="215.53" r="3.5" fill="#1f77b4" opacity="0.8"><title>Houston Rockets\n3PA: 19.8\n3P%: 0.358</title></circle>
<circle cx="126.57" cy="144.65" r="3.5" fill="#1f77b4" opacity="0.8"><title>Indiana Pacers\n3PA: 18.1\n3P%: 0.392</title></circle>
<circle cx="117.01" cy="255.15" r="3.5" fill="#1f77b4" opacity="0.8"><title>Los Angeles Clippers\n3PA: 15.5\n3P%: 0.339</title></circle>
<circle cx="107.08" cy="275.99" r="3.5" fill="#1f77b4" opacity="0.8"><title>Los Angeles Lakers\n3PA: 12.8\n3P%: 0.329</title></circle>
<circle cx="114.06" cy="188.43" r="3.5" fill="#1f77b4" opacity="0.8"><title>Miami Heat\n3PA: 14.7\n3P%: 0.371</title></circle>
<circle cx="107.81" cy="192.60" r="3.5" fill="#1f77b4" opacity="0.8"><title>Milwaukee Bucks\n3PA: 13.0\n3P%: 0.369</title></circle>
<circle cx="92.00" cy="240.55" r="3.5" fill="#1f77b4" opacity="0.8"><title>Minnesota Timberwolves\n3PA: 8.7\n3P%: 0.346</title></circle>
<circle cx="121.79" cy="238.47" r="3.5" fill="#1f77b4" opacity="0.8"><title>New Jersey Nets\n3PA: 16.8\n3P%: 0.347</title></circle>
<circle cx="101.93" cy="180.09" r="3.5" fill="#1f77b4" opacity="0.8"><title>New York Knicks\n3PA: 11.4\n3P%: 0.375</title></circle>
<circle cx="98.99" cy="257.23" r="3.5" fill="#1f77b4" opacity="0.8"><title>Orlando Magic\n3PA: 10.6\n3P%: 0.338</title></circle>
<circle cx="88.69" cy="288.50" r="3.5" fill="#1f77b4" opacity="0.8"><title>Philadelphia 76ers\n3PA: 7.8\n3P%: 0.323</title></circle>
<circle cx="115.90" cy="194.68" r="3.5" fill="#1f77b4" opacity="0.8"><title>Phoenix Suns\n3PA: 15.2\n3P%: 0.368</title></circle>
<circle cx="110.75" cy="209.28" r="3.5" fill="#1f77b4" opacity="0.8"><title>Portland Trail Blazers\n3PA: 13.8\n3P%: 0.361</title></circle>
<circle cx="134.29" cy="290.59" r="3.5" fill="#1f77b4" opacity="0.8"><title>Sacramento Kings\n3PA: 20.2\n3P%: 0.322</title></circle>
<circle cx="99.72" cy="182.17" r="3.5" fill="#1f77b4" opacity="0.8"><title>San Antonio Spurs\n3PA: 10.8\n3P%: 0.374</title></circle>
<circle cx="132.09" cy="255.15" r="3.5" fill="#1f77b4" opacity="0.8"><title>Seattle SuperSonics\n3PA: 19.6\n3P%: 0.339</title></circle>
<circle cx="112.59" cy="205.11" r="3.5" fill="#1f77b4" opacity="0.8"><title>Toronto Raptors\n3PA: 14.3\n3P%: 0.363</title></circle>
<circle cx="98.25" cy="159.24" r="3.5" fill="#1f77b4" opacity="0.8"><title>Utah Jazz\n3PA: 10.4\n3P%: 0.385</title></circle>
<circle cx="100.46" cy="209.28" r="3.5" fill="#1f77b4" opacity="0.8"><title>Vancouver Grizzlies\n3PA: 11.0\n3P%: 0.361</title></circle>
<circle cx="100.09" cy="178.00" r="3.5" fill="#1f77b4" opacity="0.8"><title>Washington Wizards\n3PA: 10.9\n3P%: 0.376</title></circle>
<circle cx="110.39" cy="225.96" r="3.5" fill="#1f77b4" opacity="0.8"><title>League Average\n3PA: 13.7\n3P%: 0.353</title></circle>
<rect x="255.0" y="60" width="195.0" height="280" fill="none" stroke="#ccc"/>
<text x="352.5" y="50.0" text-anchor="middle">Season 2010</text>
<line x1="255.00" y1="340" x2="255.00" y2="345" stroke="#666"/>
<text x="255.00" y="360" text-anchor="middle">0.0</text>
<line x1="303.75" y1="340" x2="303.75" y2="345" stroke="#666"/>
<text x="303.75" y="360" text-anchor="middle">13.3</text>
<line x1="352.50" y1="340" x2="352.50" y2="345" stroke="#666"/>
<text x="352.50" y="360" text-anchor="middle">26.5</text>
<line x1="401.25" y1="340" x2="401.25" y2="345" stroke="#666"/>
<text x="401.25" y="360" text-anchor="middle">39.8</text>
<line x1="450.00" y1="340" x2="450.00" y2="345" stroke="#666"/>
<text x="450.00" y="360" text-anchor="middle">53.0</text>
<line x1="250.0" y1="340.00" x2="255.0" y2="340.00" stroke="#666"/>
<text x="245.0" y="344.00" text-anchor="end">0.298</text>
<line x1="250.0" y1="270.00" x2="255.0" y2="270.00" stroke="#666"/>
<text x="245.0" y="274.00" text-anchor="end">0.332</text>
<line x1="255.0" y1="270.00" x2="450.0" y2="270.00" stroke="#eee"/>
<line x1="250.0" y1="200.00" x2="255.0" y2="200.00" stroke="#666"/>
<text x="245.0" y="204.00" text-anchor="end">0.365</text>
<line x1="255.0" y1="200.00" x2="450.0" y2="200.00" stroke="#eee"/>
<line x1="250.0" y1="130.00" x2="255.0" y2="130.00" stroke="#666"/>
<text x="245.0" y="134.00" text-anchor="end">0.399</text>
<line x1="255.0" y1="130.00" x2="450.0" y2="130.00" stroke="#eee"/>
<line x1="250.0" y1="60.00" x2="255.0" y2="60.00" stroke="#666"/>
<text x="245.0" y="64.00" text-anchor="end">0.433</text>
<circle cx="320.10" cy="211.36" r="3.5" fill="#1f77b4" opacity="0.8"><title>Atlanta Hawks\n3PA: 17.7\n3P%: 0.360</title></circle>
<circle cx="319.36" cy="236.38" r="3.5" fill="#1f77b4" opacity="0.8"><title>Boston Celtics\n3PA: 17.5\n3P%: 0.348</title></circle>
<circle cx="314.58" cy="240.55" r="3.5" fill="#1f77b4" opacity="0.8"><title>Charlotte Bobcats\n3PA: 16.2\n3P%: 0.346</title></circle>
<circle cx="302.81" cy="273.91" r="3.5" fill="#1f77b4" opacity="0.8"><title>Chicago Bulls\n3PA: 13.0\n3P%: 0.330</title></circle>
<circle cx="325.98" cy="167.58" r="3.5" fill="#1f77b4" opacity="0.8"><title>Cleveland Cavaliers\n3PA: 19.3\n3P%: 0.381</title></circle>
<circle cx="322.30" cy="186.34" r="3.5" fill="#1f77b4" opacity="0.8"><title>Dallas Mavericks\n3PA: 18.3\n3P%: 0.372</title></circle>
<circle cx="323.04" cy="213.45" r="3.5" fill="#1f77b4" opacity="0.8"><title>Denver Nuggets\n3PA: 18.5\n3P%: 0.359</title></circle>
<circle cx="308.33" cy="307.27" r="3.5" fill="#1f77b4" opacity="0.8"><title>Detroit Pistons\n3PA: 14.5\n3P%: 0.314</title></circle>
<circle cx="330.76" cy="180.09" r="3.5" fill="#1f77b4" opacity="0.8"><title>Golden State Warriors\n3PA: 20.6\n3P%: 0.375</title></circle>
<circle cx="337.38" cy="230.13" r="3.5" fill="#1f77b4" opacity="0.8"><title>Houston Rockets\n3PA: 22.4\n3P%: 0.351</title></circle>
<circle cx="339.96" cy="236.38" r="3.5" fill="#1f77b4" opacity="0.8"><title>Indiana Pacers\n3PA: 23.1\n3P%: 0.348</title></circle>
<circle cx="320.47" cy="269.74" r="3.5" fill="#1f77b4" opacity="0.8"><title>Los Angeles Clippers\n3PA: 17.8\n3P%: 0.332</title></circle>
<circle cx="324.88" cy="250.98" r="3.5" fill="#1f77b4" opacity="0.8"><title>Los Angeles Lakers\n3PA: 19.0\n3P%: 0.341</title></circle>
<circle cx="300.61" cy="259.31" r="3.5" fill="#1f77b4" opacity="0.8"><title>Memphis Grizzlies\n3PA: 12.4\n3P%: 0.337</title></circle>
<circle cx="318.99" cy="240.55" r="3.5" fill="#1f77b4" opacity="0.8"><title>Miami Heat\n3PA: 17.4\n3P%: 0.346</title></circle>
<circle cx="336.28" cy="219.70" r="3.5" fill="#1f77b4" opacity="0.8"><title>Milwaukee Bucks\n3PA: 22.1\n3P%: 0.356</title></circle>
<circle cx="307.96" cy="250.98" r="3.5" fill="#1f77b4" opacity="0.8"><title>Minnesota Timberwolves\n3PA: 14.4\n3P%: 0.341</title></circle>
<circle cx="308.33" cy="298.93" r="3.5" fill="#1f77b4" opacity="0.8"><title>New Jersey Nets\n3PA: 14.5\n3P%: 0.318</title></circle>
<circle cx="325.61" cy="205.11" r="3.5" fill="#1f77b4" opacity="0.8"><title>New Orleans Hornets\n3PA: 19.2\n3P%: 0.363</title></circle>
<circle cx="351.36" cy="240.55" r="3.5" fill="#1f77b4" opacity="0.8"><title>New York Knicks\n3PA: 26.2\n3P%: 0.346</title></circle>
<circle cx="310.17" cy="253.06" r="3.5" fill="#1f77b4" opacity="0.8"><title>Oklahoma City Thunder\n3PA: 15.0\n3P%: 0.340</title></circle>
<circle cx="355.41" cy="180.09" r="3.5" fill="#1f77b4" opacity="0.8"><title>Orlando Magic\n3PA: 27.3\n3P%: 0.375</title></circle>
<circle cx="316.79" cy="246.81" r="3.5" fill="#1f77b4" opacity="0.8"><title>Philadelphia 76ers\n3PA: 16.8\n3P%: 0.343</title></circle>
<circle cx="334.44" cy="102.95" r="3.5" fill="#1f77b4" opacity="0.8"><title>Phoenix Suns\n3PA: 21.6\n3P%: 0.412</title></circle>
<circle cx="317.16" cy="223.87" r="3.5" fill="#1f77b4" opacity="0.8"><title>Portland Trail Blazers\n3PA: 16.9\n3P%: 0.354</title></circle>
<circle cx="317.16" cy="234.30" r="3.5" fill="#1f77b4" opacity="0.8"><title>Sacramento Kings\n3PA: 16.9\n3P%: 0.349</title></circle>
<circle cx="324.51" cy="215.53" r="3.5" fill="#1f77b4" opacity="0.8"><title>San Antonio Spurs\n3PA: 18.9\n3P%: 0.358</title></circle>
<circle cx="317.52" cy="188.43" r="3.5" fill="#1f77b4" opacity="0.8"><title>Toronto Raptors\n3PA: 17.0\n3P%: 0.371</title></circle>
<circle cx="309.06" cy="203.02" r="3.5" fill="#1f77b4" opacity="0.8"><title>Utah Jazz\n3PA: 14.7\n3P%: 0.364</title></circle>
<circle cx="309.80" cy="225.96" r="3.5" fill="#1f77b4" opacity="0.8"><title>Washington Wizards\n3PA: 14.9\n3P%: 0.353</title></circle>
<circle cx="321.57" cy="221.79" r="3.5" fill="#1f77b4" opacity="0.8"><title>League Average\n3PA: 18.1\n3P%: 0.355</title></circle>
<rect x="450.0" y="60" width="195.0" height="280" fill="none" stroke="#ccc"/>
<text x="547.5" y="50.0" text-anchor="middle">Season 2020</text>
<line x1="450.00" y1="340" x2="450.00" y2="345" stroke="#666"/>
<text x="450.00" y="360" text-anchor="middle">0.0</text>
<line x1="498.75" y1="340" x2="498.75" y2="345" stroke="#666"/>
<text x="498.75" y="360" text-anchor="middle">13.3</text>
<line x1="547.50" y1="340" x2="547.50" y2="345" stroke="#666"/>
<text x="547.50" y="360" text-anchor="middle">26.5</text>
<line x1="596.25" y1="340" x2="596.25" y2="345" stroke="#666"/>
<text x="596.25" y="360" text-anchor="middle">39.8</text>
<line x1="645.00" y1="340" x2="645.00" y2="345" stroke="#666"/>
<text x="645.00" y="360" text-anchor="middle">53.0</text>
<line x1="445.0" y1="340.00" x2="450.0" y2="340.00" stroke="#666"/>
<text x="440.0" y="344.00" text-anchor="end">0.298</text>
<line x1="445.0" y1="270.00" x2="450.0" y2="270.00" stroke="#666"/>
<text x="440.0" y="274.00" text-anchor="end">0.332</text>
<line x1="450.0" y1="270.00" x2="645.0" y2="270.00" stroke="#eee"/>
<line x1="445.0" y1="200.00" x2="450.0" y2="200.00" stroke="#666"/>
<text x="440.0" y="204.00" text-anchor="end">0.365</text>
<line x1="450.0" y1="200.00" x2="645.0" y2="200.00" stroke="#eee"/>
<line x1="445.0" y1="130.00" x2="450.0" y2="130.00" stroke="#666"/>
<text x="440.0" y="134.00" text-anchor="end">0.399</text>
<line x1="450.0" y1="130.00" x2="645.0" y2="130.00" stroke="#eee"/>
<line x1="445.0" y1="60.00" x2="450.0" y2="60.00" stroke="#666"/>
<text x="440.0" y="64.00" text-anchor="end">0.433</text>
<circle cx="582.77" cy="267.65" r="3.5" fill="#1f77b4" opacity="0.8"><title>Atlanta Hawks\n3PA: 36.1\n3P%: 0.333</title></circle>
<circle cx="576.89" cy="203.02" r="3.5" fill="#1f77b4" opacity="0.8"><title>Boston Celtics\n3PA: 34.5\n3P%: 0.364</title></circle>
<circle cx="590.13" cy="246.81" r="3.5" fill="#1f77b4" opacity="0.8"><title>Brooklyn Nets\n3PA: 38.1\n3P%: 0.343</title></circle>
<circle cx="579.09" cy="236.38" r="3.5" fill="#1f77b4" opacity="0.8"><title>Chicago Bulls\n3PA: 35.1\n3P%: 0.348</title></circle>
<circle cx="576.15" cy="228.04" r="3.5" fill="#1f77b4" opacity="0.8"><title>Charlotte Hornets\n3PA: 34.3\n3P%: 0.352</title></circle>
<circle cx="566.96" cy="230.13" r="3.5" fill="#1f77b4" opacity="0.8"><title>Cleveland Cavaliers\n3PA: 31.8\n3P%: 0.351</title></circle>
<circle cx="601.90" cy="196.77" r="3.5" fill="#1f77b4" opacity="0.8"><title>Dallas Mavericks\n3PA: 41.3\n3P%: 0.367</title></circle>
<circle cx="562.54" cy="213.45" r="3.5" fill="#1f77b4" opacity="0.8"><title>Denver Nuggets\n3PA: 30.6\n3P%: 0.359</title></circle>
<circle cx="570.27" cy="196.77" r="3.5" fill="#1f77b4" opacity="0.8"><title>Detroit Pistons\n3PA: 32.7\n3P%: 0.367</title></circle>
<circle cx="565.12" cy="265.57" r="3.5" fill="#1f77b4" opacity="0.8"><title>Golden State Warriors\n3PA: 31.3\n3P%: 0.334</title></circle>
<circle cx="616.61" cy="242.64" r="3.5" fill="#1f77b4" opacity="0.8"><title>Houston Rockets\n3PA: 45.3\n3P%: 0.345</title></circle>
<circle cx="552.98" cy="205.11" r="3.5" fill="#1f77b4" opacity="0.8"><title>Indiana Pacers\n3PA: 28.0\n3P%: 0.363</title></circle>
<circle cx="573.21" cy="188.43" r="3.5" fill="#1f77b4" opacity="0.8"><title>Los Angeles Clippers\n3PA: 33.5\n3P%: 0.371</title></circle>
<circle cx="566.22" cy="234.30" r="3.5" fill="#1f77b4" opacity="0.8"><title>Los Angeles Lakers\n3PA: 31.6\n3P%: 0.349</title></circle>
<circle cx="565.85" cy="238.47" r="3.5" fill="#1f77b4" opacity="0.8"><title>Memphis Grizzlies\n3PA: 31.5\n3P%: 0.347</title></circle>
<circle cx="580.20" cy="171.75" r="3.5" fill="#1f77b4" opacity="0.8"><title>Miami Heat\n3PA: 35.4\n3P%: 0.379</title></circle>
<circle cx="593.07" cy="221.79" r="3.5" fill="#1f77b4" opacity="0.8"><title>Milwaukee Bucks\n3PA: 38.9\n3P%: 0.355</title></circle>
<circle cx="596.01" cy="261.40" r="3.5" fill="#1f77b4" opacity="0.8"><title>Minnesota Timberwolves\n3PA: 39.7\n3P%: 0.336</title></circle>
<circle cx="585.71" cy="190.51" r="3.5" fill="#1f77b4" opacity="0.8"><title>New Orleans Pelicans\n3PA: 36.9\n3P%: 0.370</title></circle>
<circle cx="554.45" cy="259.31" r="3.5" fill="#1f77b4" opacity="0.8"><title>New York Knicks\n3PA: 28.4\n3P%: 0.337</title></circle>
<circle cx="561.07" cy="221.79" r="3.5" fill="#1f77b4" opacity="0.8"><title>Oklahoma City Thunder\n3PA: 30.2\n3P%: 0.355</title></circle>
<circle cx="568.43" cy="246.81" r="3.5" fill="#1f77b4" opacity="0.8"><title>Orlando Magic\n3PA: 32.2\n3P%: 0.343</title></circle>
<circle cx="566.22" cy="194.68" r="3.5" fill="#1f77b4" opacity="0.8"><title>Philadelphia 76ers\n3PA: 31.6\n3P%: 0.368</title></circle>
<circle cx="566.96" cy="215.53" r="3.5" fill="#1f77b4" opacity="0.8"><title>Phoenix Suns\n3PA: 31.8\n3P%: 0.358</title></circle>
<circle cx="575.41" cy="175.92" r="3.5" fill="#1f77b4" opacity="0.8"><title>Portland Trail Blazers\n3PA: 34.1\n3P%: 0.377</title></circle>
<circle cx="578.36" cy="203.02" r="3.5" fill="#1f77b4" opacity="0.8"><title>Sacramento Kings\n3PA: 34.9\n3P%: 0.364</title></circle>
<circle cx="554.82" cy="178.00" r="3.5" fill="#1f77b4" opacity="0.8"><title>San Antonio Spurs\n3PA: 28.5\n3P%: 0.376</title></circle>
<circle cx="586.08" cy="182.17" r="3.5" fill="#1f77b4" opacity="0.8"><title>Toronto Raptors\n3PA: 37.0\n3P%: 0.374</title></circle>
<circle cx="579.46" cy="169.66" r="3.5" fill="#1f77b4" opacity="0.8"><title>Utah Jazz\n3PA: 35.2\n3P%: 0.380</title></circle>
<circle cx="569.90" cy="194.68" r="3.5" fill="#1f77b4" opacity="0.8"><title>Washington Wizards\n3PA: 32.6\n3P%: 0.368</title></circle>
<circle cx="575.41" cy="215.53" r="3.5" fill="#1f77b4" opacity="0.8"><title>League Average\n3PA: 34.1\n3P%: 0.358</title></circle>
<rect x="645.0" y="60" width="195.0" height="280" fill="none" stroke="#ccc"/>
<text x="742.5" y="50.0" text-anchor="middle">Season 2025</text>
<line x1="645.00" y1="340" x2="645.00" y2="345" stroke="#666"/>
<text x="645.00" y="360" text-anchor="middle">0.0</text>
<line x1="693.75" y1="340" x2="693.75" y2="345" stroke="#666"/>
<text x="693.75" y="360" text-anchor="middle">13.3</text>
<line x1="742.50" y1="340" x2="742.50" y2="345" stroke="#666"/>
<text x="742.50" y="360" text-anchor="middle">26.5</text>
<line x1="791.25" y1="340" x2="791.25" y2="345" stroke="#666"/>
<text x="791.25" y="360" text-anchor="middle">39.8</text>
<line x1="840.00" y1="340" x2="840.00" y2="345" stroke="#666"/>
<text x="840.00" y="360" text-anchor="middle">53.0</text>
<line x1="640.0" y1="340.00" x2="645.0" y2="340.00" stroke="#666"/>
<text x="635.0" y="344.00" text-anchor="end">0.298</text>
<line x1="640.0" y1="270.00" x2="645.0" y2="270.00" stroke="#666"/>
<text x="635.0" y="274.00" text-anchor="end">0.332</text>
<line x1="645.0" y1="270.00" x2="840.0" y2="270.00" stroke="#eee"/>
<line x1="640.0" y1="200.00" x2="645.0" y2="200.00" stroke="#666"/>
<text x="635.0" y="204.00" text-anchor="end">0.365</text>
<line x1="645.0" y1="200.00" x2="840.0" y2="200.00" stroke="#eee"/>
<line x1="640.0" y1="130.00" x2="645.0" y2="130.00" stroke="#666"/>
<text x="635.0" y="134.00" text-anchor="end">0.399</text>
<line x1="645.0" y1="130.00" x2="840.0" y2="130.00" stroke="#eee"/>
<line x1="640.0" y1="60.00" x2="645.0" y2="60.00" stroke="#666"/>
<text x="635.0" y="64.00" text-anchor="end">0.433</text>
<circle cx="783.66" cy="215.53" r="3.5" fill="#1f77b4" opacity="0.8"><title>Atlanta Hawks\n3PA: 37.7\n3P%: 0.358</title></circle>
<circle cx="822.27" cy="194.68" r="3.5" fill="#1f77b4" opacity="0.8"><title>Boston Celtics\n3PA: 48.2\n3P%: 0.368</title></circle>
<circle cx="789.91" cy="244.72" r="3.5" fill="#1f77b4" opacity="0.8"><title>Brooklyn Nets\n3PA: 39.4\n3P%: 0.344</title></circle>
<circle cx="799.47" cy="196.77" r="3.5" fill="#1f77b4" opacity="0.8"><title>Chicago Bulls\n3PA: 42.0\n3P%: 0.367</title></circle>
<circle cx="785.86" cy="255.15" r="3.5" fill="#1f77b4" opacity="0.8"><title>Charlotte Hornets\n3PA: 38.3\n3P%: 0.339</title></circle>
<circle cx="797.63" cy="163.41" r="3.5" fill="#1f77b4" opacity="0.8"><title>Cleveland Cavaliers\n3PA: 41.5\n3P%: 0.383</title></circle>
<circle cx="770.78" cy="203.02" r="3.5" fill="#1f77b4" opacity="0.8"><title>Dallas Mavericks\n3PA: 34.2\n3P%: 0.364</title></circle>
<circle cx="762.32" cy="178.00" r="3.5" fill="#1f77b4" opacity="0.8"><title>Denver Nuggets\n3PA: 31.9\n3P%: 0.376</title></circle>
<circle cx="775.20" cy="207.19" r="3.5" fill="#1f77b4" opacity="0.8"><title>Detroit Pistons\n3PA: 35.4\n3P%: 0.362</title></circle>
<circle cx="800.94" cy="203.02" r="3.5" fill="#1f77b4" opacity="0.8"><title>Golden State Warriors\n3PA: 42.4\n3P%: 0.364</title></circle>
<circle cx="776.67" cy="225.96" r="3.5" fill="#1f77b4" opacity="0.8"><title>Houston Rockets\n3PA: 35.8\n3P%: 0.353</title></circle>
<circle cx="776.67" cy="194.68" r="3.5" fill="#1f77b4" opacity="0.8"><title>Indiana Pacers\n3PA: 35.8\n3P%: 0.368</title></circle>
<circle cx="767.84" cy="184.26" r="3.5" fill="#1f77b4" opacity="0.8"><title>Los Angeles Clippers\n3PA: 33.4\n3P%: 0.373</title></circle>
<circle cx="778.87" cy="198.85" r="3.5" fill="#1f77b4" opacity="0.8"><title>Los Angeles Lakers\n3PA: 36.4\n3P%: 0.366</title></circle>
<circle cx="784.39" cy="196.77" r="3.5" fill="#1f77b4" opacity="0.8"><title>Memphis Grizzlies\n3PA: 37.9\n3P%: 0.367</title></circle>
<circle cx="782.18" cy="196.77" r="3.5" fill="#1f77b4" opacity="0.8"><title>Miami Heat\n3PA: 37.3\n3P%: 0.367</title></circle>
<circle cx="779.61" cy="155.07" r="3.5" fill="#1f77b4" opacity="0.8"><title>Milwaukee Bucks\n3PA: 36.6\n3P%: 0.387</title></circle>
<circle cx="791.75" cy="175.92" r="3.5" fill="#1f77b4" opacity="0.8"><title>Minnesota Timberwolves\n3PA: 39.9\n3P%: 0.377</title></circle>
<circle cx="772.25" cy="238.47" r="3.5" fill="#1f77b4" opacity="0.8"><title>New Orleans Pelicans\n3PA: 34.6\n3P%: 0.347</title></circle>
<circle cx="770.41" cy="192.60" r="3.5" fill="#1f77b4" opacity="0.8"><title>New York Knicks\n3PA: 34.1\n3P%: 0.369</title></circle>
<circle cx="787.70" cy="182.17" r="3.5" fill="#1f77b4" opacity="0.8"><title>Oklahoma City Thunder\n3PA: 38.8\n3P%: 0.374</title></circle>
<circle cx="774.83" cy="298.93" r="3.5" fill="#1f77b4" opacity="0.8"><title>Orlando Magic\n3PA: 35.3\n3P%: 0.318</title></circle>
<circle cx="781.82" cy="250.98" r="3.5" fill="#1f77b4" opacity="0.8"><title>Philadelphia 76ers\n3PA: 37.2\n3P%: 0.341</title></circle>
<circle cx="784.76" cy="173.83" r="3.5" fill="#1f77b4" opacity="0.8"><title>Phoenix Suns\n3PA: 38.0\n3P%: 0.378</title></circle>
<circle cx="783.66" cy="248.89" r="3.5" fill="#1f77b4" opacity="0.8"><title>Portland Trail Blazers\n3PA: 37.7\n3P%: 0.342</title></circle>
<circle cx="774.46" cy="217.62" r="3.5" fill="#1f77b4" opacity="0.8"><title>Sacramento Kings\n3PA: 35.2\n3P%: 0.357</title></circle>
<circle cx="790.64" cy="217.62" r="3.5" fill="#1f77b4" opacity="0.8"><title>San Antonio Spurs\n3PA: 39.6\n3P%: 0.357</title></circle>
<circle cx="770.05" cy="236.38" r="3.5" fill="#1f77b4" opacity="0.8"><title>Toronto Raptors\n3PA: 34.0\n3P%: 0.348</title></circle>
<circle cx="791.38" cy="232.21" r="3.5" fill="#1f77b4" opacity="0.8"><title>Utah Jazz\n3PA: 39.8\n3P%: 0.350</title></circle>
<circle cx="788.80" cy="263.48" r="3.5" fill="#1f77b4" opacity="0.8"><title>Washington Wizards\n3PA: 39.1\n3P%: 0.335</title></circle>
<circle cx="783.29" cy="211.36" r="3.5" fill="#1f77b4" opacity="0.8"><title>League Average\n3PA: 37.6\n3P%: 0.360</title></circle>
<text x="450.0" y="390.0" text-anchor="middle">3PA per game</text>
<text x="20" y="200.0" text-anchor="middle" transform="rotate(-90 20 200.0)">3P%</text>
</svg>